<svg width="1080" height="1080" viewBox="0 0 1080 1080" fill="none" xmlns="http://www.w3.org/2000/svg">
<g clip-path="url(#clip0_1_3)">
<rect width="1080" height="1080" fill="white"/>
<g clip-path="url(#clip1_1_3)">
<mask id="mask0_1_3" style="mask-type:luminance" maskUnits="userSpaceOnUse" x="0" y="0" width="1080" height="1080">
<path d="M1080 0H0V1080H1080V0Z" fill="white"/>
</mask>
<g mask="url(#mask0_1_3)">
<path d="M1080 0H0V1080H1080V0Z" fill="#E86F00"/>
<path d="M939.46 319.48C900.913 224.416 808.61 162.186 706.029 162.101H705.609C644.715 162.031 585.864 184.055 539.977 224.085C468.704 161.968 368.678 144.925 280.855 179.935C193.033 214.944 132.163 296.127 123.169 390.241C117.885 444.936 130.603 499.861 159.39 546.666C130.9 576.245 131.341 623.19 160.381 652.229C174.506 666.371 193.684 674.301 213.671 674.266C215.217 674.266 216.762 674.216 218.291 674.119C218.199 675.669 218.144 677.223 218.144 678.79C218.089 698.788 226.036 717.977 240.215 732.079C254.341 746.227 273.524 754.161 293.517 754.125C295.063 754.125 296.608 754.075 298.137 753.978C298.045 755.528 297.99 757.082 297.99 758.648C297.935 778.646 305.882 797.835 320.061 811.938C334.191 826.081 353.376 834.009 373.368 833.967C374.926 833.967 376.484 833.912 378.038 833.82C376.109 865.078 393.714 894.272 422.261 907.151C450.808 920.031 484.345 913.911 506.503 891.78L509.548 888.735C510.407 891.912 512.084 894.809 514.412 897.135C533.223 915.965 560.976 922.71 586.331 914.613C611.685 906.517 630.393 884.935 634.809 858.688C657.085 866.819 681.948 863.311 701.105 849.334C720.262 835.357 731.19 812.751 730.246 789.056C731.182 789.094 732.123 789.115 733.068 789.115C752.426 789.128 770.952 781.243 784.363 767.283C797.774 753.322 804.909 734.495 804.12 715.153C805.06 715.191 806.001 715.212 806.946 715.212C825.809 715.245 843.908 707.76 857.237 694.414C880.417 671.234 884.218 635.903 868.661 608.734L884.172 592.698C955.753 520.961 977.529 413.387 939.481 319.459L939.46 319.48ZM187.11 625.5C180.065 618.456 176.108 608.902 176.108 598.939C176.108 588.977 180.065 579.423 187.11 572.378L247.842 511.646C262.511 496.978 286.294 496.979 300.962 511.649C315.63 526.318 315.629 550.1 300.96 564.768L240.228 625.5C225.55 640.144 201.788 640.144 187.11 625.5ZM266.94 705.35C259.895 698.306 255.937 688.752 255.937 678.79C255.937 668.827 259.895 659.273 266.94 652.229L327.672 591.497C342.341 576.828 366.124 576.828 380.793 591.497C395.462 606.166 395.462 629.949 380.793 644.618L320.061 705.35C305.383 719.998 281.618 719.998 266.94 705.35ZM346.807 785.205C339.762 778.161 335.804 768.607 335.804 758.644C335.804 748.682 339.762 739.128 346.807 732.083L407.539 671.351C422.208 656.682 445.991 656.682 460.66 671.351C475.33 686.021 475.33 709.804 460.66 724.473L399.928 785.205C385.25 799.852 361.485 799.852 346.807 785.205ZM479.775 865.055C465.096 879.703 441.331 879.703 426.653 865.055C412.008 850.376 412.008 826.613 426.653 811.934L487.389 751.185C502.058 736.516 525.842 736.516 540.511 751.185C555.18 765.854 555.18 789.637 540.511 804.307L479.775 865.055ZM588.269 870.394C575.247 883.388 554.163 883.388 541.141 870.394C538.815 868.065 535.918 866.388 532.741 865.53L567.219 831.052C571.746 826.527 575.682 821.447 578.932 815.932L591.268 826.73C601.284 839.998 600.007 858.614 588.273 870.389L588.269 870.394ZM830.487 667.693C817.474 680.706 796.376 680.706 783.363 667.693L683.491 567.813C676.111 560.432 664.144 560.432 656.763 567.813C649.382 575.194 649.382 587.161 656.763 594.542L706.701 644.476L756.639 694.414C769.654 707.425 769.657 728.524 756.645 741.54C743.633 754.555 722.534 754.558 709.519 741.546L659.581 691.612L609.66 641.67C602.279 634.289 590.312 634.289 582.931 641.67C575.55 649.051 575.55 661.018 582.931 668.399L632.865 718.333L682.798 768.266C695.81 781.282 695.807 802.381 682.792 815.393C669.777 828.404 648.678 828.401 635.666 815.386C635.369 815.089 635.064 814.809 634.75 814.546L618.601 800.409C617.459 799.087 616.262 797.798 615.01 796.541C613.6 795.129 611.974 793.949 610.193 793.046L589.248 774.705C588.437 754.46 579.501 735.395 564.46 721.82C549.418 708.246 529.54 701.306 509.317 702.57C509.41 701.02 509.464 699.466 509.464 697.9C509.471 677.109 500.882 657.24 485.731 643.002C470.581 628.764 450.218 621.423 429.467 622.72C429.559 621.17 429.614 619.616 429.614 618.049C429.621 597.258 421.031 577.39 405.881 563.152C390.73 548.913 370.367 541.573 349.617 542.869C349.709 541.319 349.764 539.765 349.764 538.199C349.82 518.199 341.872 499.009 327.693 484.905C298.293 455.505 250.497 455.505 221.113 484.905L186.997 519.022C140.7 436.231 154.627 330.765 222.646 262.725C263.16 222.212 317.033 199.897 374.334 199.897C424.86 199.897 472.74 217.252 511.115 249.138L362.779 371.085L362.359 371.442C350.839 381.475 345.142 396.632 347.204 411.769C349.265 426.906 358.807 439.989 372.591 446.576C390.68 455.182 413.331 459.718 437.019 459.718C444.698 459.716 452.371 459.243 459.993 458.302C479.35 455.867 498.252 450.632 516.105 442.762C536.538 433.816 556.126 421.384 574.329 405.802C576.459 403.946 579.446 403.433 582.074 404.471C597.187 410.558 612.867 415.132 628.883 418.125L830.483 620.544C843.495 633.557 843.495 654.655 830.483 667.668L830.487 667.693ZM857.304 566.112L857.082 566.339L843.642 580.224L685.134 421.065C699.375 419.812 713.405 416.789 726.898 412.064C748.436 404.462 768.201 392.396 785.635 376.205C793.29 369.102 793.738 357.139 786.635 349.484C779.532 341.83 767.569 341.382 759.915 348.485C701.01 403.198 625.804 381.346 596.22 369.405C580.522 363.064 562.598 366.02 549.768 377.066C521.119 401.569 488.477 416.68 455.368 420.746C431.008 423.753 406.14 420.632 388.836 412.396C386.553 411.34 384.98 409.177 384.678 406.68C384.307 404.208 385.201 401.715 387.06 400.044L551.952 264.502L552.372 264.145C553.077 263.527 553.783 262.885 554.472 262.196C638.106 179.137 773.959 179.376 857.292 262.729C897.809 303.247 920.124 357.116 920.124 414.416C920.124 471.717 897.826 525.586 857.308 566.104L857.304 566.112Z" fill="black"/>
</g>
</g>
</g>
<defs>
<clipPath id="clip0_1_3">
<rect width="1080" height="1080" fill="white"/>
</clipPath>
<clipPath id="clip1_1_3">
<rect width="1080" height="1080" fill="white"/>
</clipPath>
</defs>
</svg>
